HIERARCHY
ROOT SpineBase
{
  OFFSET 0.000000 0.000000 0.000000
  CHANNELS 6 Xposition Yposition Zposition Zrotation Xrotation Yrotation
  JOINT SpineMid
  {
    OFFSET 0.000000 32.638820 0.000000
    CHANNELS 3 Zrotation Xrotation Yrotation
    JOINT SpineShoulder
    {
      OFFSET -0.004662 24.287393 -0.954228
      CHANNELS 3 Zrotation Xrotation Yrotation
      JOINT Neck
      {
        OFFSET 0.002391 8.052768 -0.696480
        CHANNELS 3 Zrotation Xrotation Yrotation
        JOINT Head
        {
          OFFSET -0.163689 10.894169 6.309673
          CHANNELS 3 Zrotation Xrotation Yrotation
          End Site
          {
            OFFSET 0 0 0
          }
        }
      }
      JOINT ShoulderLeft
      {
        OFFSET -22.341752 -7.226877 47.930789
        CHANNELS 3 Zrotation Xrotation Yrotation
        JOINT ElbowLeft
        {
          OFFSET -7.781964 -26.345383 -1.528842
          CHANNELS 3 Zrotation Xrotation Yrotation
          JOINT WristLeft
          {
            OFFSET -1.095273 -26.997092 -6.018773
            CHANNELS 3 Zrotation Xrotation Yrotation
            JOINT HandLeft
            {
              OFFSET 1.045309 -23.004927 -5.109840
              CHANNELS 3 Zrotation Xrotation Yrotation
              JOINT HandTipLeft
              {
                OFFSET -0.135808 -7.461159 -2.145037
                CHANNELS 3 Zrotation Xrotation Yrotation
                End Site
                {
                  OFFSET 0 0 0
                }
              }
              JOINT ThumbLeft
              {
                OFFSET 5.187801 -1.365036 -2.390291
                CHANNELS 3 Zrotation Xrotation Yrotation
                End Site
                {
                  OFFSET 0 0 0
                }
              }
            }
          }
        }
      }
      JOINT ShoulderRight
      {
        OFFSET 14.864076 -7.090073 -6.333485
        CHANNELS 3 Zrotation Xrotation Yrotation
        JOINT ElbowRight
        {
          OFFSET 5.750897 -26.443091 2.555340
          CHANNELS 3 Zrotation Xrotation Yrotation
          JOINT WristRight
          {
            OFFSET 1.340425 -21.563914 1.027158
            CHANNELS 3 Zrotation Xrotation Yrotation
            JOINT HandRight
            {
              OFFSET 0.549842 -6.719593 2.938013
              CHANNELS 3 Zrotation Xrotation Yrotation
              JOINT HandTipRight
              {
                OFFSET 0.609619 -6.454035 -1.385315
                CHANNELS 3 Zrotation Xrotation Yrotation
                End Site
                {
                  OFFSET 0 0 0
                }
              }
              JOINT ThumbRight
              {
                OFFSET -1.201660 -0.960210 -4.266030
                CHANNELS 3 Zrotation Xrotation Yrotation
                End Site
                {
                  OFFSET 0 0 0
                }
              }
            }
          }
        }
      }
    }
  }
  JOINT HipLeft
  {
    OFFSET -3.407191 1.572910 -3.137519
    CHANNELS 3 Zrotation Xrotation Yrotation
    JOINT KneeLeft
    {
      OFFSET -1.520352 -39.493316 -10.246732
      CHANNELS 3 Zrotation Xrotation Yrotation
      JOINT AnkleLeft
      {
        OFFSET 2.344735 -35.850083 -3.736971
        CHANNELS 3 Zrotation Xrotation Yrotation
        JOINT FootLeft
        {
          OFFSET -7.311829 -2.929644 -8.401398
          CHANNELS 3 Zrotation Xrotation Yrotation
          End Site
          {
            OFFSET 0 0 0
          }
        }
      }
    }
  }
  JOINT HipRight
  {
    OFFSET 3.392365 1.466066 -4.593841
    CHANNELS 3 Zrotation Xrotation Yrotation
    JOINT KneeRight
    {
      OFFSET 12.156274 -37.778336 -9.393860
      CHANNELS 3 Zrotation Xrotation Yrotation
      JOINT AnkleRight
      {
        OFFSET 3.578474 -38.720234 -4.466722
        CHANNELS 3 Zrotation Xrotation Yrotation
        JOINT FootRight
        {
          OFFSET -6.442727 -3.280195 -7.379327
          CHANNELS 3 Zrotation Xrotation Yrotation
          End Site
          {
            OFFSET 0 0 0
          }
        }
      }
    }
  }
}
MOTION
Frames: 16
Frame Time: 0.033333
0.531919 84.812927 287.536399 -0.096812 0.431578 8.207271 0.034213 -0.440978 -8.206774 -0.000000 0.000000 0.000000 -0.338350 1.002577 0.212921 0.000000 0.000000 0.000000 -0.000000 0.000000 0.000000 -1.417678 1.271698 0.279383 -0.695841 -6.954583 -0.195214 4.135747 11.162661 -1.265900 0.000000 0.000000 0.000000 0.000000 0.000000 0.000000 -0.000000 0.000000 0.000000 2.187067 -1.445944 0.041831 -7.502353 11.353828 -0.937214 4.490330 -7.676131 2.269607 0.000000 0.000000 0.000000 0.000000 0.000000 0.000000 0.034213 -0.440978 -8.206774 -0.000000 0.000000 0.000000 25.548849 -26.112718 9.317583 0.000000 0.000000 0.000000 0.034213 -0.440978 -8.206774 -0.000000 0.000000 0.000000 7.179914 -7.554600 -1.152242 0.000000 0.000000 0.000000
0.516544 84.717015 287.431715 -0.123134 0.570370 7.844662 0.044137 -0.581838 -7.843825 -0.000000 0.000000 0.000000 -0.329251 1.014414 0.207796 0.000000 0.000000 0.000000 -0.181692 0.970683 -0.274383 -1.221578 0.206916 0.532035 -1.296462 -7.016230 -0.114255 3.912495 11.807544 -1.084378 0.000000 0.000000 0.000000 0.000000 0.000000 0.000000 -0.000000 0.000000 0.000000 2.235520 -1.574423 0.039273 -7.434991 11.214101 -0.910582 4.213498 -6.653812 2.303545 0.000000 0.000000 0.000000 0.000000 0.000000 0.000000 0.559545 -1.471579 -7.967581 -0.633792 0.809647 0.137470 9.211804 -10.285527 0.178968 0.000000 0.000000 0.000000 0.044137 -0.581838 -7.843825 -0.000000 0.000000 0.000000 4.606723 -4.040018 -2.694417 0.000000 0.000000 0.000000
0.508286 84.597839 287.330788 -0.143903 0.698820 7.847463 0.047147 -0.711922 -7.846292 -0.000000 0.000000 0.000000 -0.281392 0.950844 0.178746 0.000000 0.000000 0.000000 -0.901593 0.917862 -0.210995 0.459834 1.051401 0.243621 -3.773574 -9.630321 0.149870 5.260372 19.370557 -1.527714 0.000000 0.000000 0.000000 0.000000 0.000000 0.000000 -0.000000 0.000000 0.000000 2.215972 -1.821488 0.027510 -7.399955 10.831223 -0.940341 4.462527 -4.916720 2.406834 0.000000 0.000000 0.000000 0.000000 0.000000 0.000000 0.811972 -1.820645 -8.027402 -0.912221 0.990886 0.205902 0.784708 0.694004 -3.984522 0.000000 0.000000 0.000000 0.047147 -0.711922 -7.846292 -0.000000 0.000000 0.000000 0.710416 1.181587 -3.882126 0.000000 0.000000 0.000000
0.518140 84.453256 287.210052 -0.128669 0.846393 8.266358 0.005648 -0.856098 -8.265365 -0.000000 0.000000 0.000000 -0.284992 0.766394 0.177801 0.000000 0.000000 0.000000 -0.621111 1.025666 -0.260815 -0.030129 0.746001 0.342621 -4.631491 -11.742315 0.028374 4.733100 30.107560 -1.047046 0.000000 0.000000 0.000000 0.000000 0.000000 0.000000 -0.000000 0.000000 0.000000 2.158104 -2.078915 0.012704 -7.646592 13.564461 -0.659473 4.901671 -4.660538 2.683289 0.000000 0.000000 0.000000 0.000000 0.000000 0.000000 1.140395 -2.082664 -8.533607 -1.304251 1.044193 0.309228 0.835245 0.629139 -3.978243 0.000000 0.000000 0.000000 0.005648 -0.856098 -8.265365 -0.000000 0.000000 0.000000 -3.465091 6.848129 -4.571727 0.000000 0.000000 0.000000
0.570287 84.287969 287.095592 -0.084140 0.979994 8.889255 -0.068307 -0.981224 -8.889120 -0.000000 0.000000 0.000000 -0.000000 0.000000 0.000000 0.000000 0.000000 0.000000 -0.000000 0.000000 0.000000 -0.935714 1.538795 0.158222 -4.652831 -14.025118 -0.236498 1.429609 38.925144 1.249121 0.000000 0.000000 0.000000 0.000000 0.000000 0.000000 -0.000000 0.000000 0.000000 1.994861 -2.352789 -0.010251 -7.193729 14.817595 -0.379233 4.903519 -1.573532 2.812990 0.000000 0.000000 0.000000 0.000000 0.000000 0.000000 1.130564 -2.552232 -9.170732 -1.434102 1.359278 0.335592 1.377326 0.058092 -4.214110 0.000000 0.000000 0.000000 -0.068307 -0.981224 -8.889120 -0.000000 0.000000 0.000000 -2.062181 5.569289 -5.418346 0.000000 0.000000 0.000000
0.649594 84.112221 286.982507 -0.015941 1.099211 9.921328 -0.021904 -0.202838 -9.921043 -0.061189 -0.087307 -0.006356 0.063844 -0.808319 0.006208 0.000000 0.000000 0.000000 0.063844 -0.808319 0.006208 -1.588068 0.758496 0.333129 -3.390560 -15.169077 -0.588794 -5.466992 45.247863 6.079735 0.000000 0.000000 0.000000 0.000000 0.000000 0.000000 0.063844 -0.808319 0.006208 1.817320 -2.605850 -0.034029 -6.401338 16.283951 0.015393 5.916398 -1.856014 2.354504 0.000000 0.000000 0.000000 0.000000 0.000000 0.000000 1.163656 -2.737906 -10.241121 -2.454406 1.147632 0.474005 3.994725 -1.801641 -4.533550 0.000000 0.000000 0.000000 -0.785484 -2.005409 -10.155231 0.439982 1.013225 0.212019 -3.602325 7.744249 -5.665183 0.000000 0.000000 0.000000
0.749451 83.952395 286.869977 0.059409 1.229688 10.688409 -0.059108 -0.212203 -10.687450 -0.080078 -0.094412 -0.006213 0.039465 -0.915786 0.003998 0.000000 0.000000 0.000000 -0.363473 -3.138802 0.669887 -1.739020 1.782095 -0.112016 1.236286 -14.372587 -1.141232 -12.400721 45.400880 9.266025 0.000000 0.000000 0.000000 0.000000 0.000000 0.000000 0.039465 -0.915786 0.003998 1.640483 -2.803228 -0.055882 -4.999102 18.251387 0.617878 8.341674 -6.188734 1.305395 0.000000 0.000000 0.000000 0.000000 0.000000 0.000000 1.089632 -3.099471 -11.021931 -2.958261 1.565024 0.567677 2.760605 0.427693 -5.614968 0.000000 0.000000 0.000000 -1.162548 -2.297136 -10.956764 0.651059 1.245995 0.230932 -5.308802 9.957491 -5.584228 0.000000 0.000000 0.000000
0.861532 83.813336 286.789480 0.146354 1.330862 10.914702 -0.099003 -0.206666 -10.913290 -0.085657 -0.065974 -0.004595 -0.002594 -1.043209 0.000062 0.000000 0.000000 0.000000 -1.190415 -5.332818 1.269320 -1.154578 2.681023 -0.632657 3.809043 -13.108314 -1.539809 -16.933342 44.775973 11.394234 0.000000 0.000000 0.000000 0.000000 0.000000 0.000000 -0.002594 -1.043209 0.000062 1.495748 -2.938606 -0.072938 -3.012049 21.446003 1.463385 5.202680 -2.366574 0.610618 0.000000 0.000000 0.000000 0.000000 0.000000 0.000000 0.948208 -3.510991 -11.243560 -3.331951 2.139908 0.643512 5.994265 -3.302766 -6.137845 0.000000 0.000000 0.000000 -1.465750 -2.493065 -11.202390 0.813783 1.398303 0.236422 -3.561854 8.715049 -7.182101 0.000000 0.000000 0.000000
0.968254 83.761771 286.723657 0.243033 1.414598 10.999688 -0.158080 -0.194922 -10.998801 -0.052976 -0.012519 0.000198 -0.072160 -1.180562 -0.006628 0.000000 0.000000 0.000000 -2.319111 -6.941813 1.662610 0.225490 3.756337 -1.210565 4.693036 -10.011094 -1.577590 -16.409053 39.754798 9.790204 0.000000 0.000000 0.000000 0.000000 0.000000 0.000000 -0.072160 -1.180562 -0.006628 1.386448 -3.006028 -0.084306 -0.482365 24.471210 2.310848 1.871953 -0.511805 -0.668304 0.000000 0.000000 0.000000 0.000000 0.000000 0.000000 0.568769 -4.038915 -11.273449 -3.654220 4.224241 0.801268 6.049473 -4.168400 -6.717919 0.000000 0.000000 0.000000 -1.678182 -2.624775 -11.303352 0.895585 1.486380 0.242604 -3.495833 8.803523 -7.441650 0.000000 0.000000 0.000000
1.127223 83.714584 286.600979 0.413985 1.566960 12.208181 -0.267446 -0.211840 -12.208340 -0.026472 0.017376 0.006064 -0.279919 -0.204734 0.061672 0.000000 0.000000 0.000000 -2.152296 -6.047740 1.364420 -0.458371 0.971946 -0.762619 2.973854 -8.217560 -1.470308 -11.892908 35.141285 7.388568 0.000000 0.000000 0.000000 0.000000 0.000000 0.000000 -0.171181 -1.320675 -0.016370 1.332865 -3.093987 -0.092695 2.960629 26.484519 3.129387 -0.344927 0.307090 -2.762030 0.000000 0.000000 0.000000 0.000000 0.000000 0.000000 0.084352 -4.433233 -12.448850 -3.611405 4.415629 0.771997 4.864479 -2.303875 -7.046702 0.000000 0.000000 0.000000 -2.055780 -2.897640 -12.578484 0.971493 1.705456 0.290915 -3.583719 8.777324 -7.229420 0.000000 0.000000 0.000000
1.402190 83.590817 286.337989 0.717029 1.870583 13.244380 -0.423526 -0.259628 -13.246012 -0.076354 -0.045636 0.008971 -0.541002 0.859181 0.150431 0.000000 0.000000 0.000000 -2.549591 -7.153782 1.606538 -0.685173 -1.388937 -0.864680 1.321624 -6.521684 -1.431578 -8.018876 30.800238 5.700514 0.000000 0.000000 0.000000 0.000000 0.000000 0.000000 -0.288390 -1.475021 -0.028186 1.302640 -3.237580 -0.102227 6.028441 28.395336 3.744878 -6.486685 2.302326 -4.590243 0.000000 0.000000 0.000000 0.000000 0.000000 0.000000 -0.553224 -4.911225 -13.462598 -3.556204 4.089265 0.699509 2.773428 3.147186 -11.298786 0.000000 0.000000 0.000000 -2.699768 -3.344112 -13.704999 0.192700 2.029055 0.487329 -2.229831 9.138196 -8.688140 0.000000 0.000000 0.000000
1.854023 83.345755 285.853787 1.310139 2.357485 15.290867 -0.593359 -0.312658 -15.291689 -0.332594 -0.302045 0.004901 -1.548865 2.502276 0.624133 0.000000 0.000000 0.000000 -1.806407 -8.394035 1.922919 -3.193604 -5.218407 -0.623333 -0.385302 -3.252261 -1.259224 2.449755 23.239464 0.306674 0.000000 0.000000 0.000000 0.000000 0.000000 0.000000 0.790486 -0.492330 0.338152 0.004726 -4.519815 -0.462074 8.162973 34.417500 4.169667 -7.083477 -8.624756 -7.135261 0.000000 0.000000 0.000000 0.000000 0.000000 0.000000 -1.500526 -5.319142 -15.533951 -3.080438 1.373035 0.387363 1.951121 7.033252 -12.029124 0.000000 0.000000 0.000000 -4.040785 -4.107487 -15.956325 0.015768 2.384992 0.665124 -0.896021 10.099650 -11.252530 0.000000 0.000000 0.000000
2.440996 83.052840 285.228376 1.910288 2.960196 17.386208 -0.711553 -0.301318 -17.391925 -0.525610 -0.555115 0.008478 -2.524180 4.146805 1.016299 0.000000 0.000000 0.000000 -0.494103 -9.220703 2.103565 -5.837227 -9.650043 -0.348652 0.099498 2.512928 -1.316930 6.654406 18.022846 -1.923973 0.000000 0.000000 0.000000 0.000000 0.000000 0.000000 1.269890 -0.170586 0.531469 -0.704255 -5.195929 -0.671717 8.872724 39.972745 4.287888 -7.913043 -10.937506 -8.183965 0.000000 0.000000 0.000000 0.000000 0.000000 0.000000 -2.622247 -5.857972 -17.655368 -2.314270 -1.740670 0.006952 -0.195863 14.468602 -15.101912 0.000000 0.000000 0.000000 -5.653803 -5.031415 -18.335074 -0.167778 2.877051 0.898259 0.782206 11.225439 -14.451758 0.000000 0.000000 0.000000
3.104629 82.762708 284.526269 2.364964 3.601799 19.161846 -0.765272 -0.222523 -19.180611 -0.690812 -0.728108 0.007508 -2.918178 5.454473 1.117103 0.000000 0.000000 0.000000 1.147399 -10.082992 2.292186 -8.959201 -15.613489 -0.054218 0.796000 5.210518 -1.914263 13.330821 20.523943 -5.850711 0.000000 0.000000 0.000000 0.000000 0.000000 0.000000 1.620400 -0.077906 0.709274 -1.160760 -5.757724 -0.847753 7.739176 48.213157 4.422798 -7.298413 -18.144332 -8.496506 0.000000 0.000000 0.000000 0.000000 0.000000 0.000000 -3.646067 -6.363976 -19.460498 -1.366830 -5.543840 -0.411795 2.842703 12.849498 -15.766165 0.000000 0.000000 0.000000 -7.359457 -6.010228 -20.434018 -0.229494 3.427550 1.133470 2.723697 12.454512 -18.253106 0.000000 0.000000 0.000000
3.770049 82.456910 283.909483 2.691777 4.137635 21.455688 -0.761428 -0.126377 -21.487955 -0.697697 -0.840327 0.020906 -3.016668 6.715983 0.988838 0.000000 0.000000 0.000000 1.832731 -12.157227 2.860805 -10.458855 -18.832667 -0.221935 1.539686 10.272346 -2.212208 17.180898 15.313579 -7.788970 0.000000 0.000000 0.000000 0.000000 0.000000 0.000000 1.699292 -0.015106 0.847134 -1.450213 -6.223065 -0.994384 5.531364 52.426579 4.772489 -5.789982 -23.183970 -7.636181 0.000000 0.000000 0.000000 0.000000 0.000000 0.000000 -4.558247 -6.634406 -21.789030 -0.528523 -8.632660 -0.719135 4.241365 13.411375 -17.354102 0.000000 0.000000 0.000000 -9.008235 -6.749493 -23.062376 -0.312374 4.032092 1.387677 4.706112 13.485348 -22.028553 0.000000 0.000000 0.000000
4.426258 82.137711 283.346505 3.022934 4.717762 22.542742 -0.665831 -0.060821 -22.587449 -0.593419 -0.932475 0.053815 -3.956775 6.763999 1.179271 0.000000 0.000000 0.000000 2.084860 -14.137802 3.372773 -11.244093 -20.638307 -0.414819 2.306679 13.610913 -2.661522 15.714471 8.558483 -6.553550 0.000000 0.000000 0.000000 0.000000 0.000000 0.000000 1.853087 0.272604 1.057476 -2.459637 -7.102064 -1.311755 6.532205 56.826306 4.897035 -3.170956 -34.638174 -7.273482 0.000000 0.000000 0.000000 0.000000 0.000000 0.000000 -5.175260 -6.998640 -22.951360 -0.080458 -11.998465 -0.938042 5.322394 15.102683 -19.547254 0.000000 0.000000 0.000000 -10.518642 -7.554277 -24.490544 -0.397694 4.571471 1.625187 6.448718 14.316492 -25.191352 0.000000 0.000000 0.000000
